<?xml version="1.0" standalone="no"?>
<svg xmlns:xlink="http://www.w3.org/1999/xlink" id="wave" style="transform:rotate(180deg); transition: 0.3s" viewBox="0 0 1440 490" version="1.1" xmlns="http://www.w3.org/2000/svg"><defs><linearGradient id="sw-gradient-0" x1="0" x2="0" y1="1" y2="0"><stop stop-color="rgba(54, 79, 199, 1)" offset="0%"/><stop stop-color="rgba(237, 242, 255, 1)" offset="100%"/></linearGradient></defs><path style="transform:translate(0, 0px); opacity:1" fill="url(#sw-gradient-0)" d="M0,392L48,383.8C96,376,192,359,288,367.5C384,376,480,408,576,400.2C672,392,768,343,864,343C960,343,1056,392,1152,383.8C1248,376,1344,310,1440,294C1536,278,1632,310,1728,343C1824,376,1920,408,2016,416.5C2112,425,2208,408,2304,392C2400,376,2496,359,2592,326.7C2688,294,2784,245,2880,204.2C2976,163,3072,131,3168,163.3C3264,196,3360,294,3456,351.2C3552,408,3648,425,3744,400.2C3840,376,3936,310,4032,302.2C4128,294,4224,343,4320,334.8C4416,327,4512,261,4608,212.3C4704,163,4800,131,4896,122.5C4992,114,5088,131,5184,122.5C5280,114,5376,82,5472,130.7C5568,180,5664,310,5760,367.5C5856,425,5952,408,6048,408.3C6144,408,6240,425,6336,375.7C6432,327,6528,212,6624,196C6720,180,6816,261,6864,302.2L6912,343L6912,490L6864,490C6816,490,6720,490,6624,490C6528,490,6432,490,6336,490C6240,490,6144,490,6048,490C5952,490,5856,490,5760,490C5664,490,5568,490,5472,490C5376,490,5280,490,5184,490C5088,490,4992,490,4896,490C4800,490,4704,490,4608,490C4512,490,4416,490,4320,490C4224,490,4128,490,4032,490C3936,490,3840,490,3744,490C3648,490,3552,490,3456,490C3360,490,3264,490,3168,490C3072,490,2976,490,2880,490C2784,490,2688,490,2592,490C2496,490,2400,490,2304,490C2208,490,2112,490,2016,490C1920,490,1824,490,1728,490C1632,490,1536,490,1440,490C1344,490,1248,490,1152,490C1056,490,960,490,864,490C768,490,672,490,576,490C480,490,384,490,288,490C192,490,96,490,48,490L0,490Z"/></svg>