<?xml version="1.0" standalone="no"?>
<svg xmlns:xlink="http://www.w3.org/1999/xlink" id="wave" style="transform:rotate(0deg); transition: 0.3s" viewBox="0 0 1440 490" version="1.1" xmlns="http://www.w3.org/2000/svg"><defs><linearGradient id="sw-gradient-0" x1="0" x2="0" y1="1" y2="0"><stop stop-color="rgba(54, 79, 199, 1)" offset="0%"/><stop stop-color="rgba(219, 228, 255, 1)" offset="100%"/></linearGradient></defs><path style="transform:translate(0, 0px); opacity:1" fill="url(#sw-gradient-0)" d="M0,147L34.3,130.7C68.6,114,137,82,206,122.5C274.3,163,343,278,411,326.7C480,376,549,359,617,334.8C685.7,310,754,278,823,245C891.4,212,960,180,1029,138.8C1097.1,98,1166,49,1234,49C1302.9,49,1371,98,1440,147C1508.6,196,1577,245,1646,245C1714.3,245,1783,196,1851,212.3C1920,229,1989,310,2057,351.2C2125.7,392,2194,392,2263,400.2C2331.4,408,2400,425,2469,359.3C2537.1,294,2606,147,2674,73.5C2742.9,0,2811,0,2880,40.8C2948.6,82,3017,163,3086,228.7C3154.3,294,3223,343,3291,326.7C3360,310,3429,229,3497,220.5C3565.7,212,3634,278,3703,261.3C3771.4,245,3840,147,3909,98C3977.1,49,4046,49,4114,89.8C4182.9,131,4251,212,4320,204.2C4388.6,196,4457,98,4526,98C4594.3,98,4663,196,4731,228.7C4800,261,4869,229,4903,212.3L4937.1,196L4937.1,490L4902.9,490C4868.6,490,4800,490,4731,490C4662.9,490,4594,490,4526,490C4457.1,490,4389,490,4320,490C4251.4,490,4183,490,4114,490C4045.7,490,3977,490,3909,490C3840,490,3771,490,3703,490C3634.3,490,3566,490,3497,490C3428.6,490,3360,490,3291,490C3222.9,490,3154,490,3086,490C3017.1,490,2949,490,2880,490C2811.4,490,2743,490,2674,490C2605.7,490,2537,490,2469,490C2400,490,2331,490,2263,490C2194.3,490,2126,490,2057,490C1988.6,490,1920,490,1851,490C1782.9,490,1714,490,1646,490C1577.1,490,1509,490,1440,490C1371.4,490,1303,490,1234,490C1165.7,490,1097,490,1029,490C960,490,891,490,823,490C754.3,490,686,490,617,490C548.6,490,480,490,411,490C342.9,490,274,490,206,490C137.1,490,69,490,34,490L0,490Z"/></svg>